<svg width="512" height="512" viewBox="0 0 512 512" fill="none" xmlns="http://www.w3.org/2000/svg">
<path fill-rule="evenodd" clip-rule="evenodd" d="M326.14 291.124L321.775 295.431C321.727 295.478 321.684 295.53 321.647 295.585L321.522 295.772C321.486 295.825 321.445 295.875 321.399 295.921L256.396 360.935C256.005 361.327 255.369 361.325 254.979 360.932L207.839 313.377C207.452 312.986 207.453 312.355 207.842 311.966L264.275 255.534C264.465 255.343 264.57 255.085 264.568 254.816L263.742 176.792C263.735 176.177 263.146 175.713 262.687 176.122C262.657 176.149 262.628 176.177 262.599 176.206L169.772 269.033C169.306 269.498 168.524 269.394 168.205 268.818C160.962 255.745 157 241.101 157 225.844C157 172.781 202.982 126 255.5 126C309.507 126 355 172.277 355 223.844C355 249.205 344.337 273.168 326.14 291.124ZM369.416 335.585C369.495 335.506 369.566 335.424 369.629 335.339C369.669 335.285 369.711 335.233 369.758 335.186C398.861 306.434 417 266.927 417 223.844C417 137.602 343.313 64 255.5 64C167.687 64 95 139.602 95 225.844C95 271.262 115.436 312.151 147.609 340.685L254.013 448.025C254.832 448.851 256.166 448.854 256.989 448.031L369.416 335.585Z" fill="#00A2E8"/>
</svg>
